<svg width="34" height="34" viewBox="0 0 34 34" fill="none" xmlns="http://www.w3.org/2000/svg">
<path d="M20.4423 26.6616C20.1731 26.6616 19.9039 26.5624 19.6914 26.3499C19.2806 25.9391 19.2806 25.2591 19.6914 24.8483L27.5398 16.9999L19.6914 9.15159C19.2806 8.74076 19.2806 8.06076 19.6914 7.64992C20.1023 7.23909 20.7823 7.23909 21.1931 7.64992L29.7923 16.2491C30.2031 16.6599 30.2031 17.3399 29.7923 17.7508L21.1931 26.3499C20.9806 26.5624 20.7114 26.6616 20.4423 26.6616Z" fill="#292D32"/>
<path d="M28.801 18.0625H4.9585C4.37766 18.0625 3.896 17.5808 3.896 17C3.896 16.4192 4.37766 15.9375 4.9585 15.9375H28.801C29.3818 15.9375 29.8635 16.4192 29.8635 17C29.8635 17.5808 29.3818 18.0625 28.801 18.0625Z" fill="#292D32"/>
</svg>
