<svg width="32" height="32" viewBox="0 0 32 32" fill="none" xmlns="http://www.w3.org/2000/svg">
<path d="M21.3332 10.6666C23.4549 10.6666 25.4897 11.5095 26.99 13.0098C28.4903 14.5101 29.3332 16.5449 29.3332 18.6666V28H23.9998V18.6666C23.9998 17.9594 23.7189 17.2811 23.2188 16.781C22.7187 16.2809 22.0404 16 21.3332 16C20.6259 16 19.9477 16.2809 19.4476 16.781C18.9475 17.2811 18.6665 17.9594 18.6665 18.6666V28H13.3332V18.6666C13.3332 16.5449 14.176 14.5101 15.6763 13.0098C17.1766 11.5095 19.2114 10.6666 21.3332 10.6666Z" stroke="#193C62" stroke-width="3" stroke-linecap="round" stroke-linejoin="round"/>
<path d="M7.99984 12H2.6665V28H7.99984V12Z" stroke="#193C62" stroke-width="3" stroke-linecap="round" stroke-linejoin="round"/>
<path d="M5.33317 7.99996C6.80593 7.99996 7.99984 6.80605 7.99984 5.33329C7.99984 3.86053 6.80593 2.66663 5.33317 2.66663C3.86041 2.66663 2.6665 3.86053 2.6665 5.33329C2.6665 6.80605 3.86041 7.99996 5.33317 7.99996Z" stroke="#193C62" stroke-width="3" stroke-linecap="round" stroke-linejoin="round"/>
</svg>
