<svg width="503" height="149" viewBox="0 0 503 149" fill="none" xmlns="http://www.w3.org/2000/svg">
<path d="M0 99.3335C15.2424 99.3335 15.2424 122.256 30.4849 122.256C45.7273 122.256 45.7273 149 60.9697 149C76.2121 149 76.2121 129.897 91.4546 129.897C106.697 129.897 106.697 110.795 121.939 110.795C137.182 110.795 137.182 115.571 152.424 115.571C167.667 115.571 167.667 122.257 182.909 122.256C198.152 122.256 198.152 87.8719 213.394 87.8718C228.636 87.8718 228.636 109.84 243.879 109.84C259.121 109.84 259.121 57.3077 274.364 57.3077C289.606 57.3077 289.606 80.2308 304.848 80.2308C320.091 80.2308 320.091 99.3334 335.333 99.3334C350.576 99.3334 350.576 64.9487 365.818 64.9487C381.061 64.9487 381.746 39.0746 396.303 26.7436C407.027 17.6597 411.545 7.64104 426.788 7.6411C442.03 7.64116 442.03 19.1026 457.273 19.1026C472.515 19.1026 487.758 2.22027e-05 503 0" stroke="#4BBBB5" stroke-width="2"/>
</svg>
