<svg width="502" height="251" viewBox="0 0 502 251" fill="none" xmlns="http://www.w3.org/2000/svg">
<path d="M30.4242 121.697C15.2121 121.697 15.2121 98.8789 0 98.8788V243C0 247.418 3.58172 251 8 251H494C498.418 251 502 247.472 502 243.054V0C486.788 2.21011e-05 471.576 19.0152 456.364 19.0152C441.151 19.0152 441.151 7.60619 425.939 7.60613C410.727 7.60607 406.218 17.5789 395.515 26.6212C380.987 38.8958 380.303 64.6515 365.091 64.6515C349.879 64.6515 349.879 98.8788 334.667 98.8788C319.455 98.8788 319.455 79.8637 304.242 79.8637C289.03 79.8637 289.03 57.0454 273.818 57.0454C258.606 57.0454 258.606 109.337 243.394 109.337C228.182 109.337 228.182 87.4697 212.97 87.4697C197.758 87.4698 197.758 121.697 182.545 121.697C167.333 121.697 167.333 115.042 152.121 115.042C136.909 115.042 136.909 110.288 121.697 110.288C106.485 110.288 106.485 129.303 91.2727 129.303C76.0606 129.303 76.0606 148.318 60.8485 148.318C45.6363 148.318 45.6363 121.697 30.4242 121.697Z" fill="url(#paint0_linear_0_831)"/>
<defs>
<linearGradient id="paint0_linear_0_831" x1="251" y1="87.4697" x2="251" y2="251" gradientUnits="userSpaceOnUse">
<stop stop-color="#4DC1B8"/>
<stop offset="1" stop-color="#1A14B8" stop-opacity="0.71"/>
</linearGradient>
</defs>
</svg>
