<svg width="41" height="25" viewBox="0 0 41 25" fill="none" xmlns="http://www.w3.org/2000/svg">
<rect width="41" height="25" rx="12.5" fill="#B9BBBC"/>
<path d="M15.5002 10.8333C14.5835 10.8333 13.8335 11.5833 13.8335 12.5C13.8335 13.4167 14.5835 14.1667 15.5002 14.1667C16.4168 14.1667 17.1668 13.4167 17.1668 12.5C17.1668 11.5833 16.4168 10.8333 15.5002 10.8333ZM25.5002 10.8333C24.5835 10.8333 23.8335 11.5833 23.8335 12.5C23.8335 13.4167 24.5835 14.1667 25.5002 14.1667C26.4168 14.1667 27.1668 13.4167 27.1668 12.5C27.1668 11.5833 26.4168 10.8333 25.5002 10.8333ZM20.5002 10.8333C19.5835 10.8333 18.8335 11.5833 18.8335 12.5C18.8335 13.4167 19.5835 14.1667 20.5002 14.1667C21.4168 14.1667 22.1668 13.4167 22.1668 12.5C22.1668 11.5833 21.4168 10.8333 20.5002 10.8333Z" fill="#EFF6FF"/>
</svg>
