<svg width="30" height="32" viewBox="0 0 30 32" fill="none" xmlns="http://www.w3.org/2000/svg">
<path d="M14.3354 2.66669H12.4688C12.1926 2.66669 11.9688 2.89056 11.9688 3.16669C11.9688 3.44281 12.1926 3.66669 12.4688 3.66669H14.3354C14.6116 3.66669 14.8354 3.44281 14.8354 3.16669C14.8354 2.89056 14.6116 2.66669 14.3354 2.66669Z" fill="#324AB2"/>
<path d="M14.3354 6.39999H12.4688C12.1926 6.39999 11.9688 6.62387 11.9688 6.89999C11.9688 7.17612 12.1926 7.39999 12.4688 7.39999H14.3354C14.6116 7.39999 14.8354 7.17612 14.8354 6.89999C14.8354 6.62387 14.6116 6.39999 14.3354 6.39999Z" fill="#324AB2"/>
<path d="M14.3354 8.26669H12.4688C12.1926 8.26669 11.9688 8.49057 11.9688 8.76669C11.9688 9.04282 12.1926 9.26669 12.4688 9.26669H14.3354C14.6116 9.26669 14.8354 9.04282 14.8354 8.76669C14.8354 8.49057 14.6116 8.26669 14.3354 8.26669Z" fill="#324AB2"/>
<path d="M29.6025 3.74619C29.0569 1.67831 27.1734 0.15175 25.0532 0.0115625C25.0471 0.010875 25.041 0.010375 25.035 0.009875C25.0028 0.0034375 0.735352 0 0.735352 0C0.459227 0 0.235352 0.223875 0.235352 0.5C0.235352 0.776125 0.459227 1 0.735352 1H1.83448L10.902 11.881V21.1667C10.902 21.3485 11.0007 21.5159 11.1597 21.604C11.2352 21.6459 11.3187 21.6667 11.402 21.6667C11.4941 21.6667 11.5861 21.6413 11.667 21.5907L15.9337 18.924C16.0799 18.8326 16.1687 18.6724 16.1687 18.5V11.881L20.149 7.10463C20.4943 7.861 21.0334 8.53969 21.701 9.04775C21.7915 9.11663 21.8979 9.14987 22.0034 9.14987C22.1543 9.14987 22.3033 9.08187 22.4017 8.95269C22.5689 8.73294 22.5264 8.41925 22.3066 8.252C21.667 7.76525 21.1737 7.08544 20.9175 6.33794C20.9054 6.3025 20.8894 6.2695 20.8705 6.23881L25.2114 1.02988C26.8188 1.22875 28.2175 2.41694 28.6355 4.00125C29.0967 5.7495 28.2875 7.66262 26.7114 8.55031C25.8133 9.05619 24.7235 9.1975 23.7214 8.93825C23.4541 8.86912 23.1813 9.02969 23.1121 9.297C23.0429 9.56431 23.2035 9.83713 23.4709 9.90631C23.8812 10.0125 24.3032 10.0647 24.725 10.0647C25.5879 10.0647 26.4489 9.84575 27.2022 9.42156C28.159 8.88269 28.9258 8.019 29.3614 6.98981C29.797 5.96019 29.8827 4.80825 29.6025 3.74619ZM15.1687 18.2229L11.902 20.2646V12.2H15.1687V18.2229ZM15.4345 11.2H11.6362L6.91398 5.53331H20.1567L15.4345 11.2ZM20.99 4.53331H6.08066L3.13616 1H23.9345L20.99 4.53331Z" fill="#324AB2"/>
<path d="M15.2848 20.8227C15.192 20.6836 15.0359 20.6 14.8687 20.6C14.7016 20.6 14.5454 20.6835 14.4527 20.8227C14.1359 21.2981 13.1021 22.9104 13.1021 23.7C13.1021 24.6741 13.8946 25.4667 14.8687 25.4667C15.8429 25.4667 16.6354 24.6741 16.6354 23.7C16.6354 22.9105 15.6016 21.2981 15.2848 20.8227ZM14.8687 24.4667C14.4459 24.4667 14.102 24.1228 14.102 23.7C14.102 23.4526 14.4514 22.742 14.8687 22.0394C15.286 22.7416 15.6354 23.4521 15.6354 23.7C15.6354 24.1228 15.2914 24.4667 14.8687 24.4667Z" fill="#324AB2"/>
<path d="M12.6847 24.2893C12.592 24.1502 12.4358 24.0666 12.2686 24.0666C12.1015 24.0666 11.9453 24.1501 11.8526 24.2893C11.5357 24.7647 10.502 26.3771 10.502 27.1666C10.502 28.1407 11.2945 28.9333 12.2686 28.9333C13.2428 28.9333 14.0353 28.1407 14.0353 27.1666C14.0353 26.3771 13.0015 24.7647 12.6847 24.2893ZM12.2686 27.9333C11.8458 27.9333 11.5019 27.5894 11.5019 27.1666C11.5019 26.9192 11.8513 26.2086 12.2686 25.506C12.6858 26.2082 13.0353 26.9187 13.0353 27.1666C13.0353 27.5894 12.6913 27.9333 12.2686 27.9333Z" fill="#324AB2"/>
<path d="M15.3512 27.356C15.2584 27.2169 15.1023 27.1333 14.9351 27.1333C14.768 27.1333 14.6118 27.2169 14.5191 27.356C14.2023 27.8314 13.1685 29.4437 13.1685 30.2333C13.1685 31.2074 13.961 32 14.9351 32C15.9093 32 16.7018 31.2075 16.7018 30.2333C16.7018 29.4438 15.668 27.8314 15.3512 27.356ZM14.9351 31C14.5124 31 14.1685 30.6561 14.1685 30.2333C14.1685 29.9859 14.5178 29.2753 14.9352 28.5727C15.3525 29.2749 15.7018 29.9854 15.7018 30.2333C15.7018 30.6561 15.3579 31 14.9351 31Z" fill="#324AB2"/>
</svg>
