<svg width="17" height="35" viewBox="0 0 17 35" fill="none" xmlns="http://www.w3.org/2000/svg">
<path d="M12.2051 5.44317V0.479004H4.53841V5.44317C4.53716 7.1761 3.84774 8.8376 2.62174 10.0623C1.39575 11.2871 0.706333 12.9486 0.705078 14.6815V17.729C0.705078 18.2373 0.907012 18.7248 1.26646 19.0843C1.6259 19.4437 2.11341 19.6457 2.62174 19.6457H14.1217C14.6301 19.6457 15.1176 19.4437 15.477 19.0843C15.8365 18.7248 16.0384 18.2373 16.0384 17.729V14.6815C16.0372 12.9486 15.3477 11.2871 14.1217 10.0623C12.8958 8.8376 12.2063 7.1761 12.2051 5.44317ZM16.0384 33.0623V29.229C16.0384 28.7207 15.8365 28.2332 15.477 27.8737C15.1176 27.5143 14.6301 27.3123 14.1217 27.3123H2.62174C2.11341 27.3123 1.6259 27.5143 1.26646 27.8737C0.907012 28.2332 0.705078 28.7207 0.705078 29.229V33.0623C0.705078 33.5707 0.907012 34.0582 1.26646 34.4176C1.6259 34.7771 2.11341 34.979 2.62174 34.979H14.1217C14.6301 34.979 15.1176 34.7771 15.477 34.4176C15.8365 34.0582 16.0384 33.5707 16.0384 33.0623Z" fill="white" stroke="#1F75FF" stroke-width="3"/>
<path d="M2.62174 19.6457C2.11341 19.6457 1.6259 19.4437 1.26646 19.0843C0.907012 18.7248 0.705078 18.2373 0.705078 17.729V14.6815C0.706333 12.9486 1.39575 11.2871 2.62174 10.0623C3.84774 8.8376 4.53716 7.1761 4.53841 5.44317V0.479004H12.2051V5.44317C12.2063 7.1761 12.8958 8.8376 14.1217 10.0623C15.3477 11.2871 16.0372 12.9486 16.0384 14.6815V17.729C16.0384 18.2373 15.8365 18.7248 15.477 19.0843C15.1176 19.4437 14.6301 19.6457 14.1217 19.6457M2.62174 19.6457H14.1217M2.62174 19.6457C2.11341 19.6457 1.6259 19.8476 1.26646 20.207C0.907012 20.5665 0.705078 21.054 0.705078 21.5623V25.3957C0.705078 25.904 0.907012 26.3915 1.26646 26.751C1.6259 27.1104 2.11341 27.3123 2.62174 27.3123M14.1217 19.6457C14.6301 19.6457 15.1176 19.8476 15.477 20.207C15.8365 20.5665 16.0384 21.054 16.0384 21.5623V25.3957C16.0384 25.904 15.8365 26.3915 15.477 26.751C15.1176 27.1104 14.6301 27.3123 14.1217 27.3123M14.1217 27.3123C14.6301 27.3123 15.1176 27.5143 15.477 27.8737C15.8365 28.2332 16.0384 28.7207 16.0384 29.229V33.0623C16.0384 33.5707 15.8365 34.0582 15.477 34.4176C15.1176 34.7771 14.6301 34.979 14.1217 34.979H2.62174C2.11341 34.979 1.6259 34.7771 1.26646 34.4176C0.907012 34.0582 0.705078 33.5707 0.705078 33.0623V29.229C0.705078 28.7207 0.907012 28.2332 1.26646 27.8737C1.6259 27.5143 2.11341 27.3123 2.62174 27.3123M14.1217 27.3123H2.62174M2.62174 0.479004H14.1217" stroke="#091057" stroke-width="3" stroke-linecap="round" stroke-linejoin="round"/>
</svg>
