<svg width="33" height="33" viewBox="0 0 33 33" fill="none" xmlns="http://www.w3.org/2000/svg">
<path d="M33 0H0V33H33V0Z" stroke="#387BC7" stroke-width="1.33333"/>
<path d="M31.4188 28.1875L17.7375 3.4375C17.6058 3.23896 17.4271 3.07609 17.2171 2.96343C17.0072 2.85077 16.7727 2.79181 16.5344 2.79181C16.2962 2.79181 16.0616 2.85077 15.8517 2.96343C15.6418 3.07609 15.463 3.23896 15.3313 3.4375L1.58129 28.1875C1.4615 28.3949 1.39797 28.63 1.39698 28.8695C1.396 29.1091 1.45761 29.3447 1.57569 29.5531C1.69378 29.7615 1.86425 29.9354 2.07023 30.0576C2.27621 30.1799 2.51055 30.2462 2.75004 30.25H30.25C30.4895 30.2462 30.7239 30.1799 30.9298 30.0576C31.1358 29.9354 31.3063 29.7615 31.4244 29.5531C31.5425 29.3447 31.6041 29.1091 31.6031 28.8695C31.6021 28.63 31.5386 28.3949 31.4188 28.1875ZM19.8 18.2875L13.8875 25.3C13.8511 25.3638 13.7907 25.4105 13.7198 25.4299C13.6489 25.4492 13.5732 25.4396 13.5094 25.4031C13.4456 25.3667 13.3989 25.3063 13.3795 25.2354C13.3602 25.1645 13.3698 25.0888 13.4063 25.025L15.125 19.9375H12.375C12.2474 19.9375 12.1222 19.9019 12.0136 19.8348C11.905 19.7677 11.8172 19.6717 11.7601 19.5575C11.703 19.4433 11.6789 19.3154 11.6903 19.1883C11.7018 19.0611 11.7484 18.9396 11.825 18.8375L17.7375 11.7562C17.9438 11.55 18.3563 11.825 18.2188 12.1L16.5 17.1875H19.25C19.3777 17.1875 19.5029 17.2231 19.6115 17.2902C19.7201 17.3573 19.8079 17.4533 19.865 17.5675C19.9221 17.6817 19.9462 17.8096 19.9348 17.9367C19.9233 18.0639 19.8766 18.1854 19.8 18.2875Z" fill="#387BC7" stroke="#387BC7" stroke-width="1.33333"/>
</svg>
