<svg width="10" height="17" viewBox="0 0 10 17" fill="none" xmlns="http://www.w3.org/2000/svg">
<path opacity="0.5" d="M9.16667 12.0833C9.16667 14.6147 7.11467 16.6667 4.58333 16.6667C2.05203 16.6667 0 14.6147 0 12.0833C0 10.6363 0.670542 9.346 1.71784 8.506C1.93754 8.32975 2.08333 8.07142 2.08333 7.78975V2.5C2.08333 1.11929 3.20258 0 4.58333 0C5.96408 0 7.08333 1.11929 7.08333 2.5V7.78975C7.08333 8.07142 7.22908 8.32975 7.44883 8.506C8.49617 9.346 9.16667 10.6363 9.16667 12.0833Z" fill="#324AB2"/>
<path d="M5.20833 2.5C5.20833 2.15483 4.9285 1.875 4.58333 1.875C4.23817 1.875 3.95833 2.15483 3.95833 2.5V9.48367C3.95833 9.84767 3.71058 10.1563 3.41 10.3616C2.86061 10.7368 2.5 11.3679 2.5 12.0833C2.5 13.2339 3.43275 14.1667 4.58333 14.1667C5.73392 14.1667 6.66667 13.2339 6.66667 12.0833C6.66667 11.3679 6.30608 10.7368 5.75667 10.3616C5.45608 10.1563 5.20833 9.84767 5.20833 9.48367V2.5Z" fill="#324AB2"/>
</svg>
